<?xml version="1.0" encoding="UTF-8"?>
<svg id="Layer_1" data-name="Layer 1" xmlns="http://www.w3.org/2000/svg" viewBox="0 0 1000 1000">
  <defs>
    <style>
      .cls-1 {
        fill: #0d0d0d;
      }

      .cls-1, .cls-2 {
        stroke-width: 0px;
      }

      .cls-2 {
        fill: #f2f2f2;
      }
    </style>
  </defs>
  <rect class="cls-1" width="1000" height="1000" rx="121.27" ry="121.27"/>
  <path class="cls-2" d="m813.7,560.07c-31.94,41.48-81.53,74.38-125.87,74.38h-14.3c-8.58,0-14.3-5.72-14.3-14.3v-233.62c0-27.65,7.15-30.99,37.66-33.37v-20.02h-318.93v20.02c30.51,2.38,37.66,5.72,37.66,33.37v90.11h-123.96v-90.11c0-27.65,7.15-30.99,37.66-33.37v-20.02h-159.72v20.02c30.51,2.38,37.66,5.72,37.66,33.37v226.94c0,27.18-7.15,30.99-37.66,33.37v20.02h159.72v-20.02c-30.51-2.38-37.66-6.2-37.66-33.37v-104.41h123.96v104.41c0,27.18-7.15,30.99-37.66,33.37v20.02h406.18l46.25-96.79-16.69-10.01Zm-238.86,53.4c0,27.1-7.12,30.97-37.41,33.35-30.29-2.39-37.41-6.25-37.41-33.35v-226.94c0-27.57,7.12-30.97,37.41-33.35,30.3,2.38,37.41,5.78,37.41,33.35v226.94Z"/>
</svg>